<svg height="293" viewBox="0 0 289 293" width="289" xmlns="http://www.w3.org/2000/svg"><path d="m171.041749 240.15887c-7.366624 2.133631-15.273821 2.324403-22.782843.120914-6.810806-1.9988-13.803979-6.397381-18.816581-12.217767-4.452922-5.170513-7.336831-11.453966-7.22356-18.1611.012885-.76601.286784-1.405395.708123-1.901684.45359-.534275 1.087119-.901148 1.765794-1.060386.697969-.163764 1.435831-.105706 2.064131.179692.568782.258362 1.056091.697197 1.360805 1.338587.770347 1.011961 1.537703 2.008935 2.30807 2.978258 6.193964 7.648302 12.192335 13.364042 21.506233 15.414118 5.053446 1.112536 10.100537.619198 14.731422-1.078209 4.95714-1.816992 9.438241-5.011693 12.949749-9.099874 1.586912-1.847565 3.460443-2.601676 5.292434-2.614351 2.076045-.014364 4.128033.95031 5.673914 2.492149 1.51954 1.515566 2.536994 3.575076 2.629209 5.729478.080935 1.890837-.535896 3.865952-2.176896 5.628061-5.405218 5.804491-12.41042 10.056802-19.990004 12.252114zm-.227445-95.791715c7.551378 4.590045 19.05736 15.293136 10.933815 26.672418-9.56219 10.033489-23.329584-1.470591-30.113918-6.673439-6.290752-4.032236-13.358764 6.338373-7.522201 11.046689 49.023736 36.295236 68.918606-29.845436 30.521685-36.442437-4.227638-.726961-5.797794 3.976788-3.819381 5.396769zm-70.639346-20.197069c-2.4270631-1.552161-5.2820717-2.084941-8.4462501-.64539-2.4726792 1.12444-6.8094797 4.872994-9.8276052 9.800698-2.0648019 3.371209-3.5289816 7.326078-3.2241593 11.445553.0707915.956702-.2827179 1.662107-.8403123 2.183677-.4403754.411924-1.0764835.71465-1.8236314.809284-.6343253.080345-1.3443336.007864-1.9216442-.172321-1.0981967-.342758-1.6794148-1.055123-1.8984066-1.636704-2.1132096-5.612091-1.2028166-11.87484 1.1655584-17.524939 3.1962652-7.625151 9.000771-14.012164 12.8037072-16.071418 6.5076185-3.525051 14.1847805-3.68729 20.7017145-.096147 5.547538 3.056474 9.016289 7.991035 12.466207 13.021021.733374 1.069261 1.461255 2.130681 2.213536 3.173431 1.507648 2.089444 1.657714 4.161728 1.07386 5.938726-.646805 1.968593-2.296022 3.629954-4.358333 4.4994-1.906131.803603-4.118443.916724-6.07608.091038-1.653738-.697507-3.171419-2.057215-4.131735-4.364294-1.617363-3.885402-4.312046-8.172115-7.876426-10.451615zm123.265817 8.644283c-1.662212.866099-2.96263 1.127233-4.806514.57479-1.019665-.306273-2.027438-.89326-2.816437-1.68226-.781942-.781941-1.346112-1.754347-1.565405-2.833096-.539347-2.662326-1.996007-5.154435-4.071809-6.779046-1.774226-1.388585-4.0137-2.124567-6.4977-1.709355-2.680425.447454-5.234181 2.166531-6.993041 4.193285-.587862.678188-1.048664 1.448418-1.511928 2.213449-.866608 1.430694-1.708917 2.760558-2.904098 3.81124-.453053.399753-1.135736.676624-1.796942.676624-.268732 0-.541457-.043729-.801338-.124724-2.667884-2.677696-3.18094-4.709003-3.094928-6.723791.090197-2.112801.923174-4.251992 2.26927-6.24792 3.157611-4.681957 9.152856-8.520726 13.198494-9.390225 5.540474-1.190632 11.042826.238643 15.454359 3.333127 4.539208 3.184042 7.90275 8.127568 8.951403 13.698677.25227 1.341755.14507 2.790027-.365923 4.045742-.499316 1.227023-1.369458 2.277945-2.647463 2.943483zm-111.046517-58.5617204c-3.324954 3.2394958-7.260327 3.7412832-11.241603 4.1875899-2.2120956.2503137-3.9780096.4521016-5.7157456.8442046-4.7763445 1.0781678-9.4975995 2.7020046-13.8049716 5.0406417-4.502664 2.4447699-9.4095446 5.3931564-12.939678 9.1702665-.8394256.8988165-1.6307178 1.8419342-2.4231154 2.7871164-.7225562.8618884-1.4186029 1.6916329-2.1521678 2.4916742-.8424482.9189505-1.6424446 1.8820731-2.4381881 2.8426801-.4920497.810557-.5892481 1.009913-.6883362 1.217443-.1491098.311844-.3225569.660834-.5206577 1.035229-.2713057.512748-.5890919 1.074036-.9219149 1.582928-.5537419.930164-.8508694 1.186377-1.1076197 1.300979-.4260358.189741-.8300708.28321-1.2220501.232594-.367535-.047459-.7137933-.223982-1.0557281-.512955-1.7070556-1.442283-2.2105088-3.809252-2.1589078-6.321795.0783041-3.8127598 1.4845951-8.034179 2.7809823-10.6291897 3.0143582-6.0296985 7.1948659-12.2979586 12.2216783-16.7982181 5.7360475-5.1369645 12.0114741-9.0259101 19.2194468-11.7056587 4.4793327-1.6658997 9.6656132-3.1950322 14.5456746-3.0018812 3.512665.1390299 6.866004 1.1831983 9.635332 3.7907581 1.700529 1.6007069 2.516829 3.8775485 2.516829 6.1527775 0 2.3205499-.847819 4.6548027-2.529259 6.2928157zm117.808725 29.6649324c-.211448.346556-.504114.585379-.829765.728814-.341379.150364-.722489.193673-1.088219.132048-.36411-.061352-.71022-.226405-.984767-.47865-.263148-.241772-.46353-.562417-.553129-.955234-2.207508-9.6955254-6.493939-16.9091404-15.642794-21.5609083-4.500458-2.2883635-9.675558-3.7423023-14.574627-4.9015163-1.423644-.3368965-2.927939-.5551818-4.442857-.7763763-4.74786-.6932396-9.529978-1.487163-12.62518-5.3249306-1.865014-2.3117331-2.647735-5.2681904-2.205187-7.9719973.416682-2.545782 1.904311-4.880084 4.608573-6.2789562 6.732485-3.480952 15.098912-.0652271 21.897637 2.8445015.504325.2158418.99939.4277251 1.483786.6321684 6.648624 2.8064282 12.71252 6.5108503 17.697154 11.8085931 3.955072 4.2028867 7.619501 10.4160878 9.095341 16.807753 1.227846 5.3176348.939139 10.7462091-1.835966 15.294691z" fill-rule="evenodd"/></svg>